{"accessors":[{"bufferView":0,"componentType":5123,"count":6528,"max":[4343],"min":[0],"type":"SCALAR"},{"bufferView":1,"componentType":5126,"count":4344,"max":[0.33578240871429443,12.447359085083008,0.25568050146102905],"min":[-0.25116607546806335,-0.9731050133705139,-0.24592062830924988],"type":"VEC3"},{"bufferView":2,"componentType":5126,"count":4344,"max":[0.9954541325569153,0.6054922342300415,0.9952858090400696],"min":[-0.9954617619514465,-0.8751358985900879,-0.9952849745750427],"type":"VEC3"},{"bufferView":3,"componentType":5126,"count":4344,"max":[0.08152608573436737,-0.016369283199310303,0.05489456653594971],"min":[-0.04098701477050781,-13.436833381652832,-0.03017742931842804],"type":"VEC3"},{"bufferView":4,"componentType":5126,"count":4344,"max":[1.994222640991211,1.1130422353744507,0.9952849745750427],"min":[-1.9689619541168213,-1.0436433553695679,-0.9952858090400696],"type":"VEC3"},{"bufferView":5,"componentType":5121,"count":84,"max":[47],"min":[0],"type":"SCALAR"},{"bufferView":6,"componentType":5126,"count":48,"max":[1.0,1.0,1.0],"min":[-1.0,-1.0,-1.0],"type":"VEC3"},{"bufferView":7,"componentType":5126,"count":48,"max":[0.9238795638084412,0.9999999403953552,0.9238795638084412],"min":[-0.9238795638084412,-0.9999999403953552,-0.9238795638084412],"type":"VEC3"},{"bufferView":8,"componentType":5126,"count":2,"max":[7.5],"min":[0.0],"type":"SCALAR"},{"bufferView":9,"componentType":5126,"count":6,"max":[1.0],"min":[0.0],"type":"SCALAR"}],"animations":[{"channels":[{"sampler":0,"target":{"node":1,"path":"weights"}}],"samplers":[{"input":8,"interpolation":"CUBICSPLINE","output":9}]}],"asset":{"generator":"Khronos Blender glTF 2.0 exporter","version":"2.0"},"bufferViews":[{"buffer":0,"byteLength":13056,"byteOffset":0,"target":34963},{"buffer":0,"byteLength":52128,"byteOffset":13056,"target":34962},{"buffer":0,"byteLength":52128,"byteOffset":65184,"target":34962},{"buffer":0,"byteLength":52128,"byteOffset":117312},{"buffer":0,"byteLength":52128,"byteOffset":169440},{"buffer":0,"byteLength":84,"byteOffset":221568,"target":34963},{"buffer":0,"byteLength":576,"byteOffset":221652,"target":34962},{"buffer":0,"byteLength":576,"byteOffset":222228,"target":34962},{"buffer":0,"byteLength":8,"byteOffset":222804},{"buffer":0,"byteLength":24,"byteOffset":222812}],"buffers":[{"byteLength":222836,"uri":"data:application/octet-stream;base64,"}],"materials":[{"name":"Material.001","pbrMetallicRoughness":{"baseColorFactor":[0.007637400645762682,0.05916536599397659,0.0013785301707684994,1.0],"metallicFactor":0.054545462131500244}}],"meshes":[{"extras":{"targetNames":["Shrinkwrap"]},"name":"Cylinder","primitives":[{"attributes":{"NORMAL":2,"POSITION":1},"indices":0,"material":0,"targets":[{"NORMAL":4,"POSITION":3}]}],"weights":[1.0]},{"name":"Cylinder.001","primitives":[{"attributes":{"NORMAL":7,"POSITION":6},"indices":5,"material":0}]}],"nodes":[{"name":"Camera","rotation":[0.483536034822464,0.33687159419059753,-0.20870360732078552,0.7804827094078064],"translation":[7.481131553649902,5.34366512298584,6.5076398849487305]},{"mesh":0,"name":"Cylinder","scale":[0.060900092124938965,0.060900092124938965,0.060900092124938965],"translation":[-0.0049419403076171875,0.01101231575012207,-0.002384185791015625]},{"mesh":1,"name":"Cylinder.001","scale":[-0.014962911605834961,-0.014962911605834961,-0.014962911605834961],"translation":[-0.0010404502972960472,-0.06420966982841492,-0.0014721127226948738]},{"name":"Lamp","rotation":[0.5243641138076782,0.5700737237930298,-0.5211811065673828,0.3583693504333496],"scale":[1.0,1.0,0.9999999403953552],"translation":[4.076245307922363,1.8760433197021484,-1.0054539442062378]},{"name":"Lamp.001","rotation":[-0.7273446917533875,0.2662915885448456,0.5305374264717102,0.3443668782711029],"translation":[-1.7522454261779785,-0.46956872940063477,-1.0054539442062378]}],"scene":0,"scenes":[{"name":"Scene","nodes":[4,2,1,3,0]}]}
